<svg width="26" height="26" viewBox="0 0 26 26" fill="none" xmlns="http://www.w3.org/2000/svg">
<path d="M23.4994 18.2225V21.3839C23.5005 21.6774 23.4403 21.9679 23.3225 22.2368C23.2047 22.5057 23.0319 22.747 22.8152 22.9454C22.5985 23.1438 22.3427 23.2949 22.0642 23.3889C21.7856 23.4829 21.4904 23.5179 21.1975 23.4914C17.9484 23.1391 14.8275 22.0311 12.0853 20.2563C9.53418 18.6384 7.37123 16.4798 5.7501 13.9336C3.96565 11.1845 2.85515 8.05458 2.50857 4.79735C2.48218 4.50594 2.51689 4.21225 2.61046 3.93496C2.70404 3.65767 2.85444 3.40287 3.0521 3.18677C3.24975 2.97067 3.49033 2.79802 3.7585 2.6798C4.02668 2.56157 4.31659 2.50038 4.60976 2.5001H7.77738C8.28981 2.49507 8.78658 2.67617 9.17511 3.00964C9.56364 3.34311 9.81741 3.80621 9.88913 4.31261C10.0228 5.32431 10.2708 6.31767 10.6282 7.27374C10.7703 7.65091 10.801 8.06082 10.7168 8.4549C10.6326 8.84898 10.437 9.21071 10.1531 9.49722L8.81214 10.8355C10.3152 13.4737 12.504 15.6581 15.1474 17.1582L16.4883 15.8199C16.7754 15.5366 17.1379 15.3413 17.5327 15.2573C17.9276 15.1732 18.3383 15.2039 18.7162 15.3457C19.6742 15.7025 20.6695 15.9499 21.6832 16.0834C22.1962 16.1556 22.6646 16.4134 22.9994 16.8078C23.3343 17.2022 23.5122 17.7057 23.4994 18.2225Z" stroke="#303030" stroke-width="1.6" stroke-linecap="round" stroke-linejoin="round"/>
</svg>
