<svg width="26" height="26" viewBox="0 0 26 26" fill="none" xmlns="http://www.w3.org/2000/svg">
<path d="M3.09998 11.7289C3.09998 10.6088 3.09998 10.0488 3.31796 9.62095C3.50971 9.24463 3.81567 8.93866 4.19199 8.74692C4.61982 8.52893 5.17987 8.52893 6.29998 8.52893L14.1001 8.52893L14.1001 17.3674L6.29997 17.3674C5.17987 17.3674 4.61982 17.3674 4.192 17.1494C3.81567 16.9577 3.50971 16.6517 3.31796 16.2754C3.09998 15.8475 3.09998 15.2875 3.09998 14.1674L3.09998 11.7289Z" stroke="#303030" stroke-width="1.6" stroke-linecap="round" stroke-linejoin="round"/>
<path d="M14.0999 8.52886L17.7746 5.76079C19.4237 4.51861 20.2482 3.89752 20.9386 3.91086C21.5394 3.92248 22.1031 4.20361 22.4739 4.6765C22.8999 5.21994 22.8999 6.25222 22.8999 8.31677L22.9 17.5794C22.9 19.644 22.9 20.6762 22.4739 21.2197C22.1031 21.6926 21.5394 21.9737 20.9386 21.9853C20.2482 21.9987 19.4237 21.3776 17.7746 20.1354L14.0999 17.3673L14.0999 8.52886Z" stroke="#303030" stroke-width="1.6" stroke-linecap="round" stroke-linejoin="round"/>
<path d="M7.49976 17.3676L10.8005 17.3676L10.8005 22.3964C10.8005 22.9564 10.8005 23.2365 10.6915 23.4504C10.5956 23.6385 10.4427 23.7915 10.2545 23.8874C10.0406 23.9964 9.76056 23.9964 9.20051 23.9964L9.09976 23.9964C8.5397 23.9964 8.25968 23.9964 8.04577 23.8874C7.8576 23.7915 7.70462 23.6385 7.60875 23.4504C7.49976 23.2365 7.49976 22.9564 7.49976 22.3964L7.49976 17.3676Z" stroke="#303030" stroke-width="1.6" stroke-linecap="round" stroke-linejoin="round"/>
</svg>
