<svg width="26" height="26" viewBox="0 0 26 26" fill="none" xmlns="http://www.w3.org/2000/svg">
<path d="M13 23.8332C18.9831 23.8332 23.8333 18.9829 23.8333 12.9998C23.8333 7.01675 18.9831 2.1665 13 2.1665C7.01692 2.1665 2.16667 7.01675 2.16667 12.9998C2.16667 18.9829 7.01692 23.8332 13 23.8332Z" stroke="#303030" stroke-width="1.6" stroke-linecap="round" stroke-linejoin="round"/>
<path d="M13 18.4165H13.01" stroke="#303030" stroke-width="1.6" stroke-linecap="round" stroke-linejoin="round"/>
<path d="M9.8475 9.75013C10.1022 9.0261 10.6049 8.41558 11.2666 8.02669C11.9283 7.6378 12.7063 7.49565 13.4628 7.6254C14.2192 7.75515 14.9054 8.14845 15.3997 8.73562C15.894 9.32279 16.1645 10.0659 16.1633 10.8335C16.1633 13.0001 12.9133 14.0835 12.9133 14.0835" stroke="#303030" stroke-width="1.6" stroke-linecap="round" stroke-linejoin="round"/>
</svg>
