<svg width="26" height="26" viewBox="0 0 26 26" fill="none" xmlns="http://www.w3.org/2000/svg">
<path d="M8.66666 22.75V20.5833C8.66666 19.4341 9.1232 18.3319 9.93586 17.5192C10.7485 16.7065 11.8507 16.25 13 16.25H20.5833C21.7326 16.25 22.8348 16.7065 23.6475 17.5192C24.4601 18.3319 24.9167 19.4341 24.9167 20.5833V22.75" stroke="#303030" stroke-width="1.6" stroke-linecap="round" stroke-linejoin="round"/>
<path d="M4.33334 8.66675V15.1667" stroke="#303030" stroke-width="1.6" stroke-linecap="round" stroke-linejoin="round"/>
<path d="M1.08334 11.9167H7.58334" stroke="#303030" stroke-width="1.6" stroke-linecap="round" stroke-linejoin="round"/>
<path d="M16.7917 11.9167C14.3984 11.9167 12.4583 9.97657 12.4583 7.58333C12.4583 5.1901 14.3984 3.25 16.7917 3.25C19.1849 3.25 21.125 5.1901 21.125 7.58333C21.125 9.97657 19.1849 11.9167 16.7917 11.9167Z" stroke="#303030" stroke-width="1.6" stroke-linecap="round" stroke-linejoin="round"/>
</svg>
