<svg width="26" height="26" viewBox="0 0 26 26" fill="none" xmlns="http://www.w3.org/2000/svg">
<path d="M3.25 10.8333C3.25 18.4166 13 24.9166 13 24.9166C13 24.9166 22.75 18.4166 22.75 10.8333C22.75 8.24739 21.7228 5.76744 19.8943 3.93896C18.0658 2.11048 15.5859 1.08325 13 1.08325C10.4141 1.08325 7.93419 2.11048 6.10571 3.93896C4.27723 5.76744 3.25 8.24739 3.25 10.8333Z" stroke="#303030" stroke-width="1.6" stroke-linecap="round" stroke-linejoin="round"/>
<path d="M13 14.0833C11.2051 14.0833 9.75 12.6282 9.75 10.8333C9.75 9.03833 11.2051 7.58325 13 7.58325C14.7949 7.58325 16.25 9.03833 16.25 10.8333C16.25 12.6282 14.7949 14.0833 13 14.0833Z" stroke="#303030" stroke-width="1.6" stroke-linecap="round" stroke-linejoin="round"/>
</svg>
