<svg width="26" height="26" viewBox="0 0 26 26" fill="none" xmlns="http://www.w3.org/2000/svg">
<path d="M20.5833 11.9165H5.41667C4.22005 11.9165 3.25 12.8866 3.25 14.0832V21.6665C3.25 22.8631 4.22005 23.8332 5.41667 23.8332H20.5833C21.78 23.8332 22.75 22.8631 22.75 21.6665V14.0832C22.75 12.8866 21.78 11.9165 20.5833 11.9165Z" stroke="#303030" stroke-width="1.6" stroke-linecap="round" stroke-linejoin="round"/>
<path d="M7.58334 11.9165V7.58317C7.58334 6.14658 8.15403 4.76883 9.16985 3.75301C10.1857 2.73719 11.5634 2.1665 13 2.1665C14.4366 2.1665 15.8143 2.73719 16.8302 3.75301C17.846 4.76883 18.4167 6.14658 18.4167 7.58317V11.9165" stroke="#303030" stroke-width="1.6" stroke-linecap="round" stroke-linejoin="round"/>
</svg>
